<?xml version="1.0" encoding="UTF-8" standalone="no"?>
<svg
   xmlns:dc="http://purl.org/dc/elements/1.1/"
   xmlns:cc="http://creativecommons.org/ns#"
   xmlns:rdf="http://www.w3.org/1999/02/22-rdf-syntax-ns#"
   xmlns:svg="http://www.w3.org/2000/svg"
   xmlns="http://www.w3.org/2000/svg"
   xmlns:sodipodi="http://sodipodi.sourceforge.net/DTD/sodipodi-0.dtd"
   xmlns:inkscape="http://www.inkscape.org/namespaces/inkscape"
   id="Layer_1"
   style="enable-background:new 0 0 512 512;"
   version="1.1"
   viewBox="0 0 512 512"
   xml:space="preserve"
   sodipodi:docname="dialog.svg"
   inkscape:version="0.92.4 (5da689c313, 2019-01-14)"><metadata
     id="metadata14"><rdf:RDF><cc:Work
         rdf:about=""><dc:format>image/svg+xml</dc:format><dc:type
           rdf:resource="http://purl.org/dc/dcmitype/StillImage" /><dc:title></dc:title></cc:Work></rdf:RDF></metadata><defs
     id="defs12" /><sodipodi:namedview
     pagecolor="#ffffff"
     bordercolor="#666666"
     borderopacity="1"
     objecttolerance="10"
     gridtolerance="10"
     guidetolerance="10"
     inkscape:pageopacity="0"
     inkscape:pageshadow="2"
     inkscape:window-width="1920"
     inkscape:window-height="1001"
     id="namedview10"
     showgrid="false"
     inkscape:zoom="0.4609375"
     inkscape:cx="-119.32203"
     inkscape:cy="256"
     inkscape:window-x="-9"
     inkscape:window-y="-9"
     inkscape:window-maximized="1"
     inkscape:current-layer="Layer_1" /><path
     inkscape:connector-curvature="0"
     id="path2"
     d="M 221.4,81.6 C 102.4,81.6 6,153.7 6,242.7 6,295.8 40.5,343 93.6,372.3 c -5.2,18.1 -17.3,40.6 -45.3,56.4 0,0 52.9,13.5 97.9,-35.1 23.4,6.5 48.8,10.1 75.3,10.1 119,0 215.4,-72.1 215.4,-161 0,-88.9 -96.5,-161.1 -215.5,-161.1 z m -99.1,126.9 c 18.9,0 34.1,15.3 34.1,34.1 0,18.9 -15.3,34.1 -34.1,34.1 -18.9,0 -34.1,-15.3 -34.1,-34.1 -0.1,-18.8 15.2,-34.1 34.1,-34.1 z m 99.1,68.3 c -18.9,0 -34.1,-15.3 -34.1,-34.1 0,-18.9 15.3,-34.1 34.1,-34.1 18.8,0 34.1,15.3 34.1,34.1 0.1,18.8 -15.2,34.1 -34.1,34.1 z m 99.2,0 c -18.9,0 -34.1,-15.3 -34.1,-34.1 0,-18.9 15.3,-34.1 34.1,-34.1 18.9,0 34.1,15.3 34.1,34.1 0,18.8 -15.3,34.1 -34.1,34.1 z"
     style="fill:#5f9d0a;fill-opacity:1" /><g
     id="g5"
     style="fill:#88ce0a;fill-opacity:1"><path
       inkscape:connector-curvature="0"
       id="XMLID_1_"
       d="m 455,387.8 c 31,-17.1 51,-44.6 51,-75.5 0,-33.8 -24,-63.5 -59.9,-80 0.3,3.5 0.4,6.9 0.4,10.4 0,46.2 -23.8,89.4 -67,121.6 -17.1,12.8 -36.4,23.2 -57.2,31.1 17.4,6.8 37.2,10.7 58.1,10.7 15.4,0 30.2,-2.1 43.9,-5.9 26.2,28.3 57,20.4 57,20.4 C 465,411.5 458,398.3 455,387.8 Z"
       style="fill:#88ce0a;fill-opacity:1" /></g></svg>